Coordinates
version=1
nRows=6
nColumns=36
inDegrees=yes

Units are S.I. units (second, meters, Newtons, ...)
If the header above contains a line with 'inDegrees', this indicates whether rotational values are in degrees (yes) or radians (no).

endheader
time	pelvis_tilt	pelvis_list	pelvis_rotation	pelvis_tx	pelvis_ty	pelvis_tz	hip_flexion_r	hip_adduction_r	hip_rotation_r	knee_angle_r	knee_angle_r_beta	ankle_angle_r	subtalar_angle_r	mtp_angle_r	hip_flexion_l	hip_adduction_l	hip_rotation_l	knee_angle_l	knee_angle_l_beta	ankle_angle_l	subtalar_angle_l	mtp_angle_l	lumbar_extension	lumbar_bending	lumbar_rotation	arm_flex_r	arm_add_r	arm_rot_r	elbow_flex_r	pro_sup_r	arm_flex_l	arm_add_l	arm_rot_l	elbow_flex_l	pro_sup_l
      0.00000000	      1.37244636	     -0.06118599	     -0.33407515	     -0.84662424	      1.26824541	     -0.08685997	     -5.47049155	      2.24615930	      3.45318368	      5.45659384	      0.09523553	      3.82345818	    -11.48544096	     -5.66773961	     -6.34614451	      0.53377494	      1.84890253	      2.61109715	      0.04557224	     10.93153058	     -1.40992844	     -5.66773961	     -9.89947073	      1.92890324	     -1.68490433	     10.30852542	     -8.44081526	     29.91582933	     23.97573295	     70.87066204	      3.94953098	     -8.04899024	     18.84202262	     26.65050012	     65.92933711
      0.00416670	     -1.33636744	      0.16860879	      0.19304580	     -0.84529196	      1.26298121	     -0.08771630	     -2.88898016	      2.50561896	      3.86458616	      4.51730108	      0.07884178	      4.69172909	     -8.45942065	     -5.92801523	     -3.64537443	      1.14439952	      3.71805949	      2.22792317	      0.03888459	      9.30817953	     -0.80462341	     -5.92801523	     -5.72056342	      1.73454551	     -1.74985579	      8.88298030	     -8.32682036	     28.22191363	     24.20504254	     70.45636442	      3.33356129	     -7.72060370	     18.43796921	     26.26899701	     65.70304436
      0.00833330	     -2.36768327	      0.68190195	      0.25469649	     -0.84572555	      1.26063127	     -0.08727730	     -2.23350586	      2.05685630	      3.22237210	      3.32323087	      0.05800132	      4.76142561	     -8.17926428	     -6.71637659	     -2.70532605	      1.80635903	      3.94453670	      1.95483717	      0.03411834	      8.98311471	      0.09531880	     -6.71637659	     -4.50411799	      0.73971235	     -0.87481689	      7.37138778	     -7.44086312	     20.84512987	     25.28902704	     78.32937432	      3.95360659	     -7.92430773	     18.87063920	     25.87157048	     68.41260476
      0.01250000	     -2.32168680	      0.96424701	      0.36609408	     -0.84531162	      1.26228831	     -0.08694863	     -2.54827043	      1.72870870	      3.16902153	      2.54347444	      0.04439200	      4.69136415	     -8.20617665	     -6.86578881	     -3.16802882	      2.18960567	      4.52943757	      1.21188663	      0.02115141	      8.44437969	     -0.07676670	     -6.86578881	     -4.59893876	      0.10478117	     -0.68270535	      7.01587926	     -7.06720113	     19.90424967	     25.44487602	     76.46613559	      4.25783963	     -8.01187031	     18.13908330	     25.55089117	     67.48007299
      0.01666670	     -2.41601355	      1.09131061	      0.49800016	     -0.84525267	      1.26224609	     -0.08706971	     -2.70113429	      1.64482506	      3.36630941	      2.06407771	      0.03602495	      4.67351896	     -8.54140453	     -7.03024504	     -3.26473768	      2.40936452	      5.30971804	      0.89722023	      0.01565945	      8.36349745	     -0.55930278	     -7.03024504	     -4.56978413	     -0.20461930	     -0.44572251	      6.56511039	     -6.89809197	     18.94928988	     25.99083101	     74.48523074	      4.45090216	     -7.95406873	     17.42389741	     25.46325163	     66.55863541
      0.02083330	     -2.24933242	      1.18949150	      0.49508103	     -0.84500694	      1.26212186	     -0.08624203	     -3.02005643	      1.55699231	      3.92357979	      1.73828081	      0.03033872	      4.44561948	     -9.12022532	     -7.26558806	     -3.56069572	      2.53555143	      5.68183736	      0.72008145	      0.01256779	      8.34393026	     -0.91536184	     -7.26558806	     -4.86117185	     -0.44168610	      0.10235669	      6.07942068	     -6.84950969	     17.17980270	     26.74949431	     78.98947439	      4.80978515	     -7.94785078	     17.13417237	     25.39076242	     69.92181901
